<mxfile host="app.diagrams.net" modified="2024-01-18T20:26:20.736Z" agent="Mozilla/5.0 (Windows NT 10.0; Win64; x64) AppleWebKit/537.36 (KHTML, like Gecko) Chrome/120.0.0.0 Safari/537.36" etag="JZsQyvHYMANAKk2C7U8f" version="22.1.16" type="onedrive">
  <diagram name="Page-1" id="NK33_mHiomFom5qIksg2">
    <mxGraphModel grid="0" page="1" gridSize="10" guides="1" tooltips="1" connect="1" arrows="1" fold="1" pageScale="1" pageWidth="827" pageHeight="1169" math="0" shadow="0">
      <root>
        <mxCell id="0" />
        <mxCell id="1" parent="0" />
        <mxCell id="kzMXFzXHPR0RO4MqpUiD-1" value="Session" style="rounded=1;whiteSpace=wrap;html=1;" vertex="1" parent="1">
          <mxGeometry x="366" y="300" width="96" height="50" as="geometry" />
        </mxCell>
        <mxCell id="kzMXFzXHPR0RO4MqpUiD-7" style="edgeStyle=orthogonalEdgeStyle;rounded=0;orthogonalLoop=1;jettySize=auto;html=1;endArrow=ERmany;endFill=0;" edge="1" parent="1" source="kzMXFzXHPR0RO4MqpUiD-2" target="kzMXFzXHPR0RO4MqpUiD-1">
          <mxGeometry relative="1" as="geometry" />
        </mxCell>
        <mxCell id="kzMXFzXHPR0RO4MqpUiD-2" value="Period" style="rounded=1;whiteSpace=wrap;html=1;" vertex="1" parent="1">
          <mxGeometry x="366" y="220" width="96" height="50" as="geometry" />
        </mxCell>
        <mxCell id="kzMXFzXHPR0RO4MqpUiD-5" style="edgeStyle=orthogonalEdgeStyle;rounded=0;orthogonalLoop=1;jettySize=auto;html=1;endArrow=ERmany;endFill=0;" edge="1" parent="1" source="kzMXFzXHPR0RO4MqpUiD-3" target="kzMXFzXHPR0RO4MqpUiD-1">
          <mxGeometry relative="1" as="geometry" />
        </mxCell>
        <mxCell id="kzMXFzXHPR0RO4MqpUiD-3" value="Room" style="rounded=1;whiteSpace=wrap;html=1;" vertex="1" parent="1">
          <mxGeometry x="220" y="300" width="96" height="50" as="geometry" />
        </mxCell>
        <mxCell id="kzMXFzXHPR0RO4MqpUiD-6" style="edgeStyle=orthogonalEdgeStyle;rounded=0;orthogonalLoop=1;jettySize=auto;html=1;entryX=1;entryY=0.5;entryDx=0;entryDy=0;endArrow=ERmany;endFill=0;" edge="1" parent="1" source="kzMXFzXHPR0RO4MqpUiD-4" target="kzMXFzXHPR0RO4MqpUiD-1">
          <mxGeometry relative="1" as="geometry" />
        </mxCell>
        <mxCell id="kzMXFzXHPR0RO4MqpUiD-15" style="edgeStyle=orthogonalEdgeStyle;rounded=0;orthogonalLoop=1;jettySize=auto;html=1;entryX=1;entryY=0.5;entryDx=0;entryDy=0;endArrow=ERmany;endFill=0;startArrow=ERmany;startFill=0;" edge="1" parent="1" source="kzMXFzXHPR0RO4MqpUiD-4" target="kzMXFzXHPR0RO4MqpUiD-8">
          <mxGeometry relative="1" as="geometry">
            <Array as="points">
              <mxPoint x="558" y="405" />
            </Array>
          </mxGeometry>
        </mxCell>
        <mxCell id="kzMXFzXHPR0RO4MqpUiD-4" value="Lecturer" style="rounded=1;whiteSpace=wrap;html=1;" vertex="1" parent="1">
          <mxGeometry x="510" y="300" width="96" height="50" as="geometry" />
        </mxCell>
        <mxCell id="kzMXFzXHPR0RO4MqpUiD-9" style="edgeStyle=orthogonalEdgeStyle;rounded=0;orthogonalLoop=1;jettySize=auto;html=1;entryX=0.5;entryY=1;entryDx=0;entryDy=0;endArrow=ERmany;endFill=0;" edge="1" parent="1" source="kzMXFzXHPR0RO4MqpUiD-8" target="kzMXFzXHPR0RO4MqpUiD-1">
          <mxGeometry relative="1" as="geometry" />
        </mxCell>
        <mxCell id="kzMXFzXHPR0RO4MqpUiD-8" value="Module" style="rounded=1;whiteSpace=wrap;html=1;" vertex="1" parent="1">
          <mxGeometry x="366" y="380" width="96" height="50" as="geometry" />
        </mxCell>
        <mxCell id="kzMXFzXHPR0RO4MqpUiD-12" style="edgeStyle=orthogonalEdgeStyle;rounded=0;orthogonalLoop=1;jettySize=auto;html=1;entryX=0.5;entryY=1;entryDx=0;entryDy=0;endArrow=ERmany;endFill=0;startArrow=ERmany;startFill=0;" edge="1" parent="1" source="kzMXFzXHPR0RO4MqpUiD-11" target="kzMXFzXHPR0RO4MqpUiD-8">
          <mxGeometry relative="1" as="geometry" />
        </mxCell>
        <mxCell id="kzMXFzXHPR0RO4MqpUiD-11" value="Course" style="rounded=1;whiteSpace=wrap;html=1;" vertex="1" parent="1">
          <mxGeometry x="366" y="460" width="96" height="50" as="geometry" />
        </mxCell>
        <mxCell id="kzMXFzXHPR0RO4MqpUiD-14" style="edgeStyle=orthogonalEdgeStyle;rounded=0;orthogonalLoop=1;jettySize=auto;html=1;entryX=0.5;entryY=1;entryDx=0;entryDy=0;endArrow=none;endFill=0;startArrow=ERmany;startFill=0;" edge="1" parent="1" source="kzMXFzXHPR0RO4MqpUiD-13" target="kzMXFzXHPR0RO4MqpUiD-11">
          <mxGeometry relative="1" as="geometry" />
        </mxCell>
        <mxCell id="kzMXFzXHPR0RO4MqpUiD-13" value="Student" style="rounded=1;whiteSpace=wrap;html=1;" vertex="1" parent="1">
          <mxGeometry x="366" y="540" width="96" height="50" as="geometry" />
        </mxCell>
      </root>
    </mxGraphModel>
  </diagram>
</mxfile>
